<?xml version="1.0" encoding="UTF-8" standalone="no"?>
<svg
   height="16px"
   viewBox="0 0 16 16"
   width="16px"
   version="1.1"
   id="svg2"
   sodipodi:docname="dictionary-symbolic.svg"
   inkscape:version="1.4.2 (ebf0e940d0, 2025-05-08)"
   xmlns:inkscape="http://www.inkscape.org/namespaces/inkscape"
   xmlns:sodipodi="http://sodipodi.sourceforge.net/DTD/sodipodi-0.dtd"
   xmlns="http://www.w3.org/2000/svg"
   xmlns:svg="http://www.w3.org/2000/svg">
  <defs
     id="defs2" />
  <sodipodi:namedview
     id="namedview2"
     pagecolor="#ffffff"
     bordercolor="#000000"
     borderopacity="0.25"
     inkscape:showpageshadow="2"
     inkscape:pageopacity="0.0"
     inkscape:pagecheckerboard="0"
     inkscape:deskcolor="#d1d1d1"
     inkscape:zoom="72.5"
     inkscape:cx="8"
     inkscape:cy="8"
     inkscape:window-width="2560"
     inkscape:window-height="1371"
     inkscape:window-x="0"
     inkscape:window-y="0"
     inkscape:window-maximized="1"
     inkscape:current-layer="g2" />
  <g
     fill="#222222"
     id="g2">
    <path
       d="m 4.273438 1.0625 c -0.859376 0.003906 -2.359376 0.914062 -2.359376 2.523438 v 9.851562 c 0 0.855469 0.707032 1.5625 1.5625 1.5625 h 9.4375 c 1.125 0.03125 0.933594 -0.988281 0.933594 -0.988281 l -9.335937 0.023437 c -2.28125 0.007813 -2.082031 -2.988281 -0.035157 -2.992187 l 9.40625 -0.011719 l 0.03125 -10 z m 0.636718 1.875 h 2.6875 c 3.316406 0 4.273438 1.261719 4.25 3.03125 c -0.027344 2.46875 -2.191406 3.011719 -4.8125 3.101562 c -0.621094 0.023438 -1.507812 0.023438 -2.125 0.023438 z m 2.03125 1.0625 v 4.03125 c 1.945313 0.023438 3 -0.683594 3 -2.0625 c 0.003906 -1.769531 -1.238281 -1.9375 -3 -1.96875 z m 0 0"
       id="path1" />
    <path
       d="m 2.402344,11.021121 h 10.449218 c -1.183593,0.498976 -1.292968,2.490921 0,3.041379 H 2.402344 Z m 0,0"
       fill-opacity="0.34902"
       id="path2"
       style="stroke-width:1.00687" />
    <rect
       id="rect2"
       width="9.5034494"
       height="8.0827589"
       x="3.2551723"
       y="1.6137931"
       rx="0.13793103"
       ry="3.5724137" />
  </g>
</svg>
