<?xml version="1.0" encoding="UTF-8"?>
<svg height="16px" viewBox="0 0 16 16" width="16px" xmlns="http://www.w3.org/2000/svg" xmlns:xlink="http://www.w3.org/1999/xlink">
    <filter id="a" height="100%" width="100%" x="0%" y="0%">
        <feColorMatrix color-interpolation-filters="sRGB" values="0 0 0 0 1 0 0 0 0 1 0 0 0 0 1 0 0 0 1 0"/>
    </filter>
    <mask id="b">
        <g filter="url(#a)">
            <rect fill-opacity="0.1" height="19.2" width="19.2" x="-1.6" y="-1.6"/>
        </g>
    </mask>
    <clipPath id="c">
        <rect height="152" width="192"/>
    </clipPath>
    <g mask="url(#b)">
        <g clip-path="url(#c)" transform="matrix(1 0 0 1 -168 -16)">
            <path d="m 128 118.65625 c -0.082031 4.089844 -3.378906 7.34375 -7.492188 7.34375 h -0.5 v 1 h 0.5 c 3.246094 0 6.058594 -1.8125 7.492188 -4.480469 z m -46 7.34375 l 38 1 v -1 z m 0 0"/>
            <path d="m 128 121.65625 c -0.082031 4.089844 -3.378906 7.34375 -7.492188 7.34375 h -0.5 v 1 h 0.5 c 3.222657 0 6.023438 -1.789062 7.464844 -4.425781 c 0.011719 -0.191407 0.027344 -0.378907 0.027344 -0.574219 z m -46 7.34375 l 38 1 v -1 z m 0 0"/>
            <path d="m 128 115.65625 c -0.082031 4.089844 -3.378906 7.34375 -7.492188 7.34375 h -0.5 v 1 h 0.5 c 3.246094 0 6.058594 -1.8125 7.492188 -4.480469 z m -46 7.34375 l 38 1 v -1 z m 0 0"/>
        </g>
    </g>
    <path d="m 0 2.164062 v 11.671876 c 0 1.195312 0.96875 2.164062 2.164062 2.164062 h 11.671876 c 1.195312 0 2.164062 -0.96875 2.164062 -2.164062 v -11.671876 c 0 -1.195312 -0.96875 -2.164062 -2.164062 -2.164062 h -3.835938 c -0.886719 0 -1.511719 0.386719 -2 0.84375 c -0.488281 -0.457031 -1.113281 -0.84375 -2 -0.84375 h -3.835938 c -1.195312 0 -2.164062 0.96875 -2.164062 2.164062 z m 2 -0.164062 h 3 c 2.328125 0 3 1.167969 3 2 c 0 -0.8125 1 -2 3 -2 h 3 v 10 h -3 c -2 0 -3 1.425781 -3 2 c 0 -0.550781 -1 -2 -3.011719 -2 h -2.988281 z m 0 0" fill="#241f31"/>
    <path d="m 9.667969 5.042969 c -0.09375 0 -0.1875 0.035156 -0.261719 0.105469 l -0.828125 0.824218 l 1.429687 1.414063 l 0.832032 -0.820313 c 0.144531 -0.140625 0.144531 -0.371094 0 -0.515625 l -0.910156 -0.902343 c -0.074219 -0.070313 -0.167969 -0.105469 -0.261719 -0.105469 z m -1.460938 1.285156 l -2.746093 2.714844 l -0.472657 1.902343 l 1.890625 -0.5 l 2.738282 -2.726562 z m 0 0" fill="#222222" fill-rule="evenodd"/>
</svg>
